<svg class="icon icon-payment-amex" width="45" height="25" viewBox="0 0 45 30" fill="none" xmlns="http://www.w3.org/2000/svg">
  <rect x="1.375" y="0.5" width="42.75" height="29" rx="3.5" fill="black" stroke="#D9D9D9"/>
  <path fill-rule="evenodd" clip-rule="evenodd" d="M9.22639 10.625L5.25 19.6834H10.0103L10.6004 18.2391H11.9494L12.5395 19.6834H17.7792V18.5811L18.2461 19.6834H20.9565L21.4234 18.5578V19.6834H32.3207L33.6457 18.2766L34.8865 19.6834L40.4835 19.6951L36.4946 15.1795L40.4835 10.625H34.9733L33.6834 12.0058L32.4818 10.625H20.627L19.609 12.9631L18.5672 10.625H13.8168V11.6898L13.2883 10.625H9.22639ZM25.4992 11.9113H31.7569L33.6709 14.0395L35.6465 11.9113H37.5604L34.6524 15.1782L37.5604 18.4075H35.5597L33.6457 16.2546L31.66 18.4075H25.4992V11.9113ZM27.0469 14.4439V13.2574V13.2562H30.9515L32.6553 15.1539L30.876 17.0619H27.0469V15.7665H30.4607V14.4439H27.0469ZM10.1479 11.911H12.4683L15.1058 18.0536V11.911H17.6477L19.6849 16.3152L21.5624 11.911H24.0916V18.411H22.5527L22.5401 13.3177L20.2964 18.411H18.9198L16.6636 13.3177V18.411H13.4976L12.8974 16.9538H9.65465L9.05568 18.4098H7.35938L10.1479 11.911ZM10.2061 15.6068L11.2744 13.0109L12.3415 15.6068H10.2061Z" fill="white"/>
</svg>