<svg class="icon icon-payment-bancontact" width="44" height="25" viewBox="0 0 44 30" fill="none" xmlns="http://www.w3.org/2000/svg">
  <rect x="0.5" y="0.5" width="42.75" height="29" rx="3.5" fill="black" stroke="#D9D9D9"/>
  <path fill-rule="evenodd" clip-rule="evenodd" d="M11.3889 21.9821C11.3889 21.8012 11.3463 21.6446 11.2612 21.5124C11.176 21.3801 11.0639 21.2792 10.9249 21.2096C11.0639 21.1401 11.1717 21.0373 11.2482 20.9016C11.3246 20.7659 11.3629 20.6129 11.3629 20.4424V20.3484C11.3629 20.1395 11.3229 19.9657 11.243 19.8264C11.163 19.6872 11.0508 19.5758 10.9066 19.4923C10.7624 19.4088 10.5894 19.3488 10.388 19.3122C10.1863 19.2757 9.96218 19.2574 9.71535 19.2574C9.63199 19.2574 9.54505 19.2592 9.45476 19.2626C9.36426 19.2661 9.27657 19.2705 9.19147 19.2757C9.10627 19.2809 9.028 19.287 8.95687 19.294C8.88553 19.301 8.82728 19.308 8.78214 19.3148C8.68135 19.3323 8.61011 19.3636 8.56843 19.4088C8.52675 19.4541 8.50586 19.5359 8.50586 19.6542V22.8278C8.50586 22.9462 8.52751 23.0279 8.57103 23.0731C8.61444 23.1184 8.68828 23.1496 8.79264 23.1671C8.84471 23.1775 8.90729 23.1861 8.98026 23.1932C9.05322 23.2001 9.13225 23.2062 9.21746 23.2114C9.30266 23.2166 9.39035 23.2209 9.48075 23.2245C9.57114 23.2279 9.6597 23.2297 9.74663 23.2297C9.97257 23.2297 10.1854 23.2122 10.3854 23.1775C10.5851 23.1428 10.7589 23.0809 10.9066 22.9921C11.0544 22.9034 11.1717 22.7834 11.2586 22.632C11.3454 22.4806 11.3889 22.2901 11.3889 22.0604V21.9821ZM10.5004 20.4839C10.5004 20.5396 10.4917 20.5927 10.4743 20.6431C10.4569 20.6935 10.4283 20.737 10.3883 20.7738C10.3483 20.8102 10.2945 20.8398 10.2267 20.8623C10.1589 20.885 10.0729 20.8962 9.96861 20.8962H9.38477V19.9932C9.40209 19.9932 9.42904 19.9925 9.46553 19.9906C9.50201 19.9889 9.54023 19.988 9.58018 19.988H9.78089C10.0485 19.988 10.2354 20.022 10.3414 20.0898C10.4473 20.1577 10.5004 20.2629 10.5004 20.4056V20.4839ZM10.3674 22.3788C10.47 22.2988 10.5213 22.1857 10.5213 22.0396V21.9821C10.5213 21.8568 10.4812 21.7481 10.4013 21.6559C10.3213 21.5638 10.1771 21.5176 9.96861 21.5176H9.38477V22.4936H9.47592C9.51587 22.4936 9.55755 22.4947 9.60107 22.4963C9.64448 22.4981 9.68616 22.499 9.72622 22.499H9.81218C10.0798 22.499 10.2649 22.4589 10.3674 22.3788ZM14.2446 21.2146C14.2446 21.0233 14.2159 20.8605 14.1586 20.7265C14.1013 20.5927 14.0204 20.483 13.9162 20.3977C13.8119 20.3125 13.6842 20.2499 13.5329 20.2098C13.3818 20.1698 13.2124 20.1498 13.0246 20.1498C12.8508 20.1498 12.6813 20.162 12.5164 20.1864C12.3511 20.2107 12.2199 20.2351 12.1227 20.2594C12.0567 20.2769 12.0237 20.3151 12.0237 20.3741V20.797C12.0237 20.8319 12.0323 20.8563 12.0498 20.87C12.0671 20.884 12.0896 20.8911 12.1175 20.8911H12.1435L12.2999 20.8779C12.3625 20.8727 12.4329 20.8685 12.5112 20.8648C12.5893 20.8615 12.671 20.8589 12.7562 20.857C12.8412 20.8553 12.9256 20.8544 13.009 20.8544C13.1306 20.8544 13.2262 20.8771 13.2957 20.9223C13.3652 20.9676 13.4 21.065 13.4 21.2146V21.4025H13.1185C12.6701 21.4025 12.3442 21.473 12.1409 21.6139C11.9376 21.7548 11.8359 21.9784 11.8359 22.2846V22.3318C11.8359 22.5022 11.8612 22.6448 11.9115 22.7596C11.9618 22.8745 12.0289 22.9667 12.1122 23.0364C12.1957 23.1059 12.2903 23.1555 12.3964 23.185C12.5024 23.2146 12.6128 23.2295 12.7275 23.2295C12.8839 23.2295 13.0186 23.2085 13.1315 23.1668C13.2444 23.1251 13.3513 23.0676 13.4522 22.9946V23.078C13.4522 23.1059 13.4626 23.1303 13.4834 23.1511C13.5043 23.172 13.5286 23.1824 13.5564 23.1824H14.1404C14.1681 23.1824 14.1924 23.172 14.2133 23.1511C14.2342 23.1303 14.2446 23.1059 14.2446 23.078V21.2146ZM13.2163 22.5588C13.2875 22.5362 13.3545 22.5093 13.417 22.4779V21.9038H13.1199C13.0295 21.9038 12.9548 21.9116 12.8957 21.9272C12.8366 21.9429 12.7896 21.9664 12.7549 21.9978C12.7202 22.029 12.6958 22.0691 12.682 22.1178C12.668 22.1665 12.6611 22.2221 12.6611 22.2848V22.3319C12.6611 22.4431 12.6879 22.5145 12.7418 22.5458C12.7957 22.5771 12.8782 22.5927 12.9895 22.5927C13.0694 22.5927 13.145 22.5815 13.2163 22.5588ZM17.4381 23.0728V21.3346C17.4381 21.1712 17.4251 21.0171 17.399 20.8727C17.3729 20.7285 17.326 20.6031 17.2582 20.4968C17.1905 20.3907 17.0966 20.3063 16.9767 20.2438C16.8568 20.1811 16.703 20.1498 16.5153 20.1498C16.3484 20.1498 16.2006 20.1699 16.0721 20.2103C15.9435 20.2506 15.808 20.3216 15.6655 20.4232V20.2968C15.6655 20.2688 15.655 20.2442 15.6342 20.2232C15.6133 20.2021 15.589 20.1915 15.5612 20.1915H14.9773C14.9494 20.1915 14.9251 20.2019 14.9043 20.2228C14.8834 20.2438 14.873 20.2681 14.873 20.2959V23.0728C14.873 23.1007 14.8842 23.1259 14.9069 23.1485C14.9295 23.1711 14.9547 23.1824 14.9825 23.1824H15.6133C15.6412 23.1824 15.6655 23.1711 15.6863 23.1486C15.7072 23.126 15.7176 23.1009 15.7176 23.073V21.021C15.808 20.9725 15.8931 20.9326 15.9731 20.9014C16.053 20.87 16.1311 20.8544 16.2077 20.8544C16.2876 20.8544 16.3528 20.8622 16.4032 20.8779C16.4535 20.8935 16.4926 20.9204 16.5204 20.9588C16.5483 20.9968 16.5674 21.0471 16.5778 21.1096C16.5882 21.1721 16.5935 21.2485 16.5935 21.3388V23.073C16.5935 23.1009 16.6039 23.126 16.6248 23.1486C16.6456 23.1711 16.6698 23.1824 16.6978 23.1824H17.3286C17.3563 23.1824 17.3816 23.1711 17.4042 23.1485C17.4268 23.1259 17.4381 23.1007 17.4381 23.0728ZM20.0011 22.5666V23.0311C20.0011 23.0694 19.9923 23.0963 19.975 23.112C19.9575 23.1277 19.9297 23.1407 19.8915 23.1511C19.8185 23.1685 19.7238 23.1859 19.6074 23.2034C19.4909 23.2207 19.3545 23.2295 19.1981 23.2295C18.8297 23.2295 18.5351 23.1164 18.3145 22.8901C18.0937 22.664 17.9834 22.3369 17.9834 21.9088V21.4704C17.9834 21.0424 18.0937 20.7152 18.3145 20.4891C18.5351 20.2628 18.8297 20.1498 19.1981 20.1498C19.3545 20.1498 19.4909 20.1585 19.6074 20.1758C19.7238 20.1934 19.8185 20.2107 19.8915 20.228C19.9297 20.2384 19.9575 20.2516 19.975 20.2672C19.9923 20.2829 20.0011 20.3099 20.0011 20.3481V20.8127C20.0011 20.8405 19.9914 20.8622 19.9724 20.8779C19.9532 20.8935 19.9297 20.9014 19.902 20.9014H19.8915C19.7942 20.8911 19.7013 20.8823 19.6126 20.8753C19.5239 20.8685 19.4049 20.8648 19.2555 20.8648C19.1964 20.8648 19.1408 20.8745 19.0886 20.8935C19.0365 20.9127 18.9913 20.9458 18.9531 20.9927C18.9148 21.0398 18.8845 21.1023 18.8618 21.1807C18.8392 21.2589 18.8279 21.3555 18.8279 21.4704V21.9088C18.8279 22.0236 18.8392 22.1202 18.8618 22.1986C18.8845 22.2768 18.9148 22.3395 18.9531 22.3864C18.9913 22.4334 19.0365 22.4665 19.0886 22.4856C19.1408 22.5048 19.1964 22.5143 19.2555 22.5143C19.4049 22.5143 19.5239 22.5108 19.6126 22.5039C19.7013 22.497 19.7942 22.4882 19.8915 22.4778H19.902C19.9297 22.4778 19.9532 22.4856 19.9724 22.5013C19.9914 22.517 20.0011 22.5387 20.0011 22.5666ZM22.8954 21.5071C22.8954 21.2982 22.8666 21.1104 22.8091 20.9434C22.7517 20.7763 22.6681 20.6346 22.5584 20.5179C22.4487 20.4014 22.3129 20.3109 22.151 20.2465C21.9891 20.1823 21.8018 20.15 21.5894 20.15C21.377 20.15 21.1898 20.1823 21.0278 20.2465C20.8659 20.3109 20.7291 20.4014 20.6177 20.5179C20.5062 20.6346 20.4218 20.7763 20.3644 20.9434C20.3068 21.1104 20.2781 21.2982 20.2781 21.5071V21.8725C20.2781 22.0812 20.3068 22.2692 20.3644 22.4362C20.4218 22.6032 20.5062 22.745 20.6177 22.8616C20.7291 22.9783 20.8659 23.0687 21.0278 23.133C21.1898 23.1973 21.377 23.2296 21.5894 23.2296C21.8018 23.2296 21.9891 23.1973 22.151 23.133C22.3129 23.0687 22.4487 22.9783 22.5584 22.8616C22.6681 22.745 22.7517 22.6032 22.8091 22.4362C22.8666 22.2692 22.8954 22.0812 22.8954 21.8725V21.5071ZM21.5894 22.5145C21.8969 22.5145 22.0508 22.3005 22.0508 21.8725V21.5071C22.0508 21.0825 21.8969 20.8702 21.5894 20.8702C21.4373 20.8702 21.3215 20.9233 21.2421 21.0294C21.1625 21.1357 21.1228 21.2949 21.1228 21.5071V21.8725C21.1228 22.0847 21.1625 22.2448 21.2421 22.3527C21.3215 22.4606 21.4373 22.5145 21.5894 22.5145ZM25.9977 23.0728V21.3346C25.9977 21.1712 25.9845 21.0171 25.9587 20.8727C25.9326 20.7285 25.8856 20.6031 25.8177 20.4968C25.7499 20.3907 25.6562 20.3063 25.5363 20.2438C25.4164 20.1811 25.2625 20.1498 25.0749 20.1498C24.9081 20.1498 24.7603 20.1699 24.6317 20.2103C24.5031 20.2506 24.3676 20.3216 24.2251 20.4232V20.2968C24.2251 20.2688 24.2147 20.2442 24.1937 20.2232C24.173 20.2021 24.1485 20.1915 24.1208 20.1915H23.5369C23.5091 20.1915 23.4848 20.2019 23.4639 20.2228C23.4431 20.2438 23.4326 20.2681 23.4326 20.2959V23.0728C23.4326 23.1007 23.4439 23.1259 23.4665 23.1485C23.4891 23.1711 23.5142 23.1824 23.5422 23.1824H24.173C24.2007 23.1824 24.2251 23.1711 24.246 23.1486C24.2668 23.126 24.2773 23.1009 24.2773 23.073V21.021C24.3676 20.9725 24.4528 20.9326 24.5327 20.9014C24.6127 20.87 24.6908 20.8544 24.7674 20.8544C24.8473 20.8544 24.9124 20.8622 24.9628 20.8779C25.0131 20.8935 25.0523 20.9204 25.0801 20.9588C25.108 20.9968 25.127 21.0471 25.1375 21.1096C25.1479 21.1721 25.1531 21.2485 25.1531 21.3388V23.073C25.1531 23.1009 25.1635 23.126 25.1844 23.1486C25.2053 23.1711 25.2295 23.1824 25.2574 23.1824H25.8882C25.916 23.1824 25.9412 23.1711 25.9639 23.1485C25.9864 23.1259 25.9977 23.1007 25.9977 23.0728ZM28.2705 22.6809V23.0848C28.2705 23.1435 28.2375 23.178 28.1715 23.1882C28.0915 23.2021 28.022 23.2124 27.963 23.2193C27.9039 23.2263 27.836 23.2297 27.7597 23.2297C27.6178 23.2297 27.4926 23.2184 27.3838 23.1958C27.275 23.1732 27.1841 23.1288 27.1116 23.0627C27.0392 22.9966 26.9839 22.9052 26.9459 22.7886C26.908 22.6721 26.8889 22.5217 26.8889 22.3372V20.8235L26.4719 20.7555C26.444 20.7486 26.4189 20.7356 26.3962 20.7164C26.3736 20.6973 26.3623 20.6738 26.3623 20.6459V20.3014C26.3623 20.2736 26.3736 20.2484 26.3962 20.2257C26.4189 20.2032 26.444 20.1918 26.4719 20.1918H26.8889V19.7638C26.8889 19.7359 26.8993 19.7134 26.92 19.6959C26.9406 19.6786 26.9649 19.6664 26.9926 19.6594L27.6248 19.5499H27.6402C27.6679 19.5499 27.6904 19.5576 27.7077 19.5732C27.7249 19.5889 27.7336 19.6107 27.7336 19.6385V20.1918H28.1611C28.1888 20.1918 28.2132 20.2023 28.2341 20.2233C28.2549 20.2444 28.2653 20.2691 28.2653 20.297V20.7233C28.2653 20.7515 28.2549 20.776 28.2341 20.797C28.2132 20.8181 28.1888 20.8286 28.1611 20.8286H27.7336V22.3476C27.7336 22.4519 27.7422 22.519 27.7597 22.5485C27.777 22.5781 27.8256 22.5928 27.9055 22.5928H28.1611C28.2341 22.5928 28.2705 22.6222 28.2705 22.6809ZM31.056 21.2146C31.056 21.0233 31.0275 20.8605 30.97 20.7265C30.9127 20.5927 30.8319 20.483 30.7277 20.3977C30.6234 20.3125 30.4957 20.2499 30.3444 20.2098C30.1933 20.1698 30.0239 20.1498 29.8362 20.1498C29.6622 20.1498 29.4929 20.162 29.3279 20.1864C29.1627 20.2107 29.0315 20.2351 28.9342 20.2594C28.868 20.2769 28.8352 20.3151 28.8352 20.3741V20.797C28.8352 20.8319 28.8437 20.8563 28.8612 20.87C28.8786 20.884 28.9011 20.8911 28.9289 20.8911H28.955L29.1115 20.8779C29.174 20.8727 29.2444 20.8685 29.3226 20.8648C29.4008 20.8615 29.4825 20.8589 29.5677 20.857C29.6528 20.8553 29.7371 20.8544 29.8205 20.8544C29.9421 20.8544 30.0377 20.8771 30.1072 20.9223C30.1768 20.9676 30.2115 21.065 30.2115 21.2146V21.4025H29.93C29.4815 21.4025 29.1557 21.473 28.9524 21.6139C28.7491 21.7548 28.6475 21.9784 28.6475 22.2846V22.3318C28.6475 22.5022 28.6726 22.6448 28.723 22.7596C28.7733 22.8745 28.8404 22.9667 28.9237 23.0364C29.0072 23.1059 29.1018 23.1555 29.2079 23.185C29.3139 23.2146 29.4242 23.2295 29.539 23.2295C29.6954 23.2295 29.83 23.2085 29.943 23.1668C30.0559 23.1251 30.1627 23.0676 30.2637 22.9946V23.078C30.2637 23.1059 30.2741 23.1303 30.295 23.1511C30.3158 23.172 30.3401 23.1824 30.3679 23.1824H30.9519C30.9796 23.1824 31.004 23.172 31.0249 23.1511C31.0456 23.1303 31.056 23.1059 31.056 23.078V21.2146ZM30.023 22.5589C30.0942 22.5364 30.1612 22.5094 30.2238 22.4781V21.9039H29.9266C29.8362 21.9039 29.7615 21.9117 29.7024 21.9273C29.6433 21.9431 29.5963 21.9666 29.5616 21.9979C29.5268 22.0291 29.5024 22.0692 29.4887 22.1179C29.4747 22.1667 29.4678 22.2223 29.4678 22.2849V22.3321C29.4678 22.4433 29.4946 22.5146 29.5485 22.5459C29.6024 22.5772 29.6849 22.5929 29.7962 22.5929C29.8761 22.5929 29.9516 22.5817 30.023 22.5589ZM33.6192 23.0311V22.5666C33.6192 22.5387 33.6096 22.517 33.5905 22.5013C33.5714 22.4856 33.548 22.4778 33.5202 22.4778H33.5098C33.4124 22.4882 33.3194 22.497 33.2308 22.5039C33.1422 22.5108 33.0231 22.5143 32.8737 22.5143C32.8145 22.5143 32.7589 22.5048 32.7069 22.4856C32.6547 22.4665 32.6095 22.4334 32.5713 22.3864C32.533 22.3395 32.5026 22.2768 32.4801 22.1986C32.4574 22.1202 32.4462 22.0236 32.4462 21.9088V21.4704C32.4462 21.3555 32.4574 21.2589 32.4801 21.1807C32.5026 21.1023 32.533 21.0398 32.5713 20.9927C32.6095 20.9458 32.6547 20.9127 32.7069 20.8935C32.7589 20.8745 32.8145 20.8648 32.8737 20.8648C33.0231 20.8648 33.1422 20.8685 33.2308 20.8753C33.3194 20.8823 33.4124 20.8911 33.5098 20.9014H33.5202C33.548 20.9014 33.5714 20.8935 33.5905 20.8779C33.6096 20.8622 33.6192 20.8405 33.6192 20.8127V20.3481C33.6192 20.3099 33.6106 20.2829 33.5931 20.2672C33.5756 20.2516 33.548 20.2384 33.5098 20.228C33.4368 20.2107 33.342 20.1934 33.2256 20.1758C33.1091 20.1585 32.9728 20.1498 32.8164 20.1498C32.4477 20.1498 32.1534 20.2628 31.9326 20.4891C31.7119 20.7152 31.6016 21.0424 31.6016 21.4704V21.9088C31.6016 22.3369 31.7119 22.664 31.9326 22.8901C32.1534 23.1164 32.4477 23.2295 32.8164 23.2295C32.9728 23.2295 33.1091 23.2207 33.2256 23.2034C33.342 23.1859 33.4368 23.1685 33.5098 23.1511C33.548 23.1407 33.5756 23.1277 33.5931 23.112C33.6106 23.0963 33.6192 23.0694 33.6192 23.0311ZM35.8682 22.6807V23.0847C35.8682 23.1433 35.835 23.1779 35.7691 23.1881C35.6891 23.202 35.6196 23.2123 35.5606 23.2192C35.5014 23.2262 35.4336 23.2296 35.3573 23.2296C35.2155 23.2296 35.0902 23.2182 34.9814 23.1957C34.8725 23.173 34.7818 23.1287 34.7093 23.0626C34.6368 22.9965 34.5815 22.9051 34.5435 22.7885C34.5056 22.672 34.4865 22.5216 34.4865 22.337V20.8234L34.0695 20.7554C34.0416 20.7485 34.0165 20.7355 33.9939 20.7163C33.9712 20.6972 33.96 20.6737 33.96 20.6458V20.3013C33.96 20.2735 33.9712 20.2483 33.9939 20.2256C34.0165 20.2031 34.0416 20.1917 34.0695 20.1917H34.4865V19.7637C34.4865 19.7358 34.4969 19.7133 34.5176 19.6958C34.5382 19.6785 34.5624 19.6663 34.5902 19.6593L35.2223 19.5498H35.2379C35.2655 19.5498 35.288 19.5575 35.3051 19.5731C35.3225 19.5888 35.3312 19.6106 35.3312 19.6384V20.1917H35.7587C35.7864 20.1917 35.8108 20.2022 35.8317 20.2232C35.8525 20.2443 35.863 20.269 35.863 20.2969V20.7232C35.863 20.7514 35.8525 20.7759 35.8317 20.7969C35.8108 20.818 35.7864 20.8285 35.7587 20.8285H35.3312V22.3474C35.3312 22.4518 35.3399 22.5189 35.3573 22.5484C35.3746 22.578 35.4232 22.5927 35.5032 22.5927H35.7587C35.8317 22.5927 35.8682 22.6221 35.8682 22.6807Z" fill="white"/>
  <path d="M32.8855 9.2124H24.4153L23.5539 10.1835L20.7585 13.3343V13.3345L19.897 14.3054H11.5388L12.3869 13.3221L12.7883 12.8567L13.6364 11.8734H9.78517C9.08159 11.8734 8.50586 12.4644 8.50586 13.1867V15.9579C8.50586 16.6803 9.08159 17.2714 9.78517 17.2714H24.5295C25.2331 17.2714 26.1942 16.8324 26.6654 16.2959L28.8956 13.7561L32.8855 9.2124Z" fill="white"/>
  <path d="M34.5886 6.25C35.2922 6.25 35.8679 6.84105 35.8679 7.56346V10.3345C35.8679 11.0569 35.2922 11.648 34.5886 11.648H30.7499L31.606 10.6721H31.6061L32.0306 10.1882L32.8867 9.21239H24.4166L19.8984 14.3091H11.4883L17.5196 7.4813L17.7478 7.2229C18.2206 6.68778 19.183 6.25 19.8866 6.25H34.5886V6.25Z" fill="#F4F4F4"/>
</svg>