<svg class="icon icon-payment-mastercard" width="45" height="25" viewBox="0 0 45 31" fill="none" xmlns="http://www.w3.org/2000/svg">
  <rect x="1" y="0.608398" width="42.75" height="29" rx="5.5" fill="black" stroke="#D9D9D9"/>
  <path fill-rule="evenodd" clip-rule="evenodd" d="M22.6869 21.5551C21.1976 22.8401 19.2657 23.6159 17.1547 23.6159C12.4439 23.6159 8.625 19.7526 8.625 14.9871C8.625 10.2216 12.4439 6.3584 17.1547 6.3584C19.2657 6.3584 21.1976 7.13414 22.6869 8.4192C24.1763 7.13414 26.1082 6.3584 28.2192 6.3584C32.93 6.3584 36.7489 10.2216 36.7489 14.9871C36.7489 19.7526 32.93 23.6159 28.2192 23.6159C26.1082 23.6159 24.1763 22.8401 22.6869 21.5551Z" fill="white"/>
  <path fill-rule="evenodd" clip-rule="evenodd" d="M22.6875 21.5551C24.5218 19.9724 25.685 17.6172 25.685 14.9871C25.685 12.3571 24.5218 10.0019 22.6875 8.4192C24.1769 7.13414 26.1088 6.3584 28.2197 6.3584C32.9306 6.3584 36.7494 10.2216 36.7494 14.9871C36.7494 19.7526 32.9306 23.6159 28.2197 23.6159C26.1088 23.6159 24.1769 22.8401 22.6875 21.5551Z" fill="#D3D3D3"/>
  <path fill-rule="evenodd" clip-rule="evenodd" d="M22.6869 21.555C24.5213 19.9724 25.6844 17.6172 25.6844 14.9871C25.6844 12.3571 24.5213 10.0019 22.6869 8.41919C20.8526 10.0019 19.6895 12.3571 19.6895 14.9871C19.6895 17.6172 20.8526 19.9724 22.6869 21.555Z" fill="#E8E8E8"/>
</svg>