<svg class="icon icon-payment-paypal" width="44" height="25" viewBox="0 0 44 30" fill="none" xmlns="http://www.w3.org/2000/svg">
  <rect x="0.5" y="0.5" width="42.75" height="29" rx="3.5" fill="black" stroke="#D9D9D9"/>
  <path fill-rule="evenodd" clip-rule="evenodd" d="M12.375 19.0511H10.4305C10.2974 19.0511 10.1843 19.1479 10.1635 19.2792L9.37704 24.2655C9.36141 24.3639 9.43761 24.4526 9.53741 24.4526H10.4657C10.5988 24.4526 10.712 24.3559 10.7327 24.2243L10.9448 22.8794C10.9653 22.7477 11.0788 22.6512 11.2115 22.6512H11.8271C13.108 22.6512 13.8472 22.0313 14.0404 20.803C14.1274 20.2656 14.0441 19.8434 13.7924 19.5476C13.5161 19.223 13.0258 19.0511 12.375 19.0511ZM12.5993 20.8723C12.493 21.5701 11.9599 21.5701 11.4444 21.5701H11.151L11.3568 20.2669C11.3691 20.1883 11.4373 20.1302 11.5169 20.1302H11.6514C12.0025 20.1302 12.3338 20.1302 12.505 20.3304C12.607 20.4498 12.6383 20.6272 12.5993 20.8723ZM18.1877 20.85H17.2565C17.1771 20.85 17.1086 20.908 17.0963 20.9868L17.0552 21.2472L16.99 21.1529C16.7884 20.8602 16.339 20.7625 15.8903 20.7625C14.8612 20.7625 13.9824 21.5418 13.8112 22.6351C13.7222 23.1804 13.8487 23.7018 14.158 24.0655C14.4419 24.3998 14.8479 24.5392 15.3309 24.5392C16.16 24.5392 16.6199 24.006 16.6199 24.006L16.5783 24.2648C16.5626 24.3638 16.6388 24.4525 16.738 24.4525H17.5769C17.7103 24.4525 17.8228 24.3558 17.8438 24.2242L18.3471 21.0371C18.363 20.939 18.2871 20.85 18.1877 20.85ZM16.8896 22.6623C16.7998 23.1943 16.3775 23.5514 15.8391 23.5514C15.5687 23.5514 15.3525 23.4647 15.2138 23.3004C15.0762 23.1372 15.0238 22.9048 15.0676 22.6462C15.1516 22.1187 15.5809 21.75 16.1112 21.75C16.3755 21.75 16.5905 21.8377 16.7321 22.0035C16.874 22.171 16.9303 22.4047 16.8896 22.6623ZM22.2112 20.8498H23.147C23.2781 20.8498 23.3545 20.9968 23.28 21.1043L20.1678 25.5967C20.1174 25.6695 20.0344 25.7127 19.9457 25.7127H19.0111C18.8795 25.7127 18.8027 25.5646 18.8788 25.4568L19.8479 24.0889L18.8173 21.0642C18.7816 20.959 18.8592 20.8498 18.9711 20.8498H19.8906C20.01 20.8498 20.1154 20.9283 20.1499 21.0426L20.6969 22.8694L21.9875 20.9684C22.0381 20.8942 22.122 20.8498 22.2112 20.8498Z" fill="white"/>
  <path fill-rule="evenodd" clip-rule="evenodd" d="M32.3599 24.2653L33.1579 19.1878C33.1701 19.1089 33.2384 19.0509 33.3178 19.0507H34.2162C34.3154 19.0507 34.3916 19.1396 34.3759 19.238L33.5889 24.2241C33.5684 24.3557 33.4553 24.4524 33.322 24.4524H32.5196C32.4204 24.4524 32.3442 24.3637 32.3599 24.2653ZM26.2481 19.0509H24.3033C24.1705 19.0509 24.0573 19.1476 24.0365 19.2789L23.2501 24.2653C23.2344 24.3637 23.3106 24.4524 23.41 24.4524H24.4079C24.5006 24.4524 24.58 24.3847 24.5944 24.2926L24.8176 22.8792C24.8381 22.7475 24.9515 22.6509 25.0843 22.6509H25.6996C26.9808 22.6509 27.7198 22.0311 27.9131 20.8028C28.0004 20.2654 27.9166 19.8432 27.665 19.5474C27.3888 19.2228 26.8989 19.0509 26.2481 19.0509ZM26.4725 20.8721C26.3664 21.5699 25.8333 21.5699 25.3175 21.5699H25.0243L25.2305 20.2667C25.2427 20.188 25.3104 20.13 25.3902 20.13H25.5247C25.8756 20.13 26.2072 20.13 26.3783 20.3301C26.4804 20.4496 26.5114 20.627 26.4725 20.8721ZM32.0602 20.8497H31.1297C31.0497 20.8497 30.9818 20.9078 30.9698 20.9866L30.9287 21.247L30.8633 21.1526C30.6617 20.86 30.2125 20.7622 29.7638 20.7622C28.7347 20.7622 27.8562 21.5416 27.685 22.6349C27.5963 23.1801 27.7222 23.7016 28.0316 24.0653C28.3159 24.3996 28.7214 24.539 29.2045 24.539C30.0335 24.539 30.4933 24.0058 30.4933 24.0058L30.4518 24.2646C30.4362 24.3636 30.5123 24.4522 30.6122 24.4522H31.4506C31.5834 24.4522 31.6966 24.3555 31.7174 24.224L32.2209 21.0368C32.2363 20.9388 32.1601 20.8497 32.0602 20.8497ZM30.7623 22.6621C30.673 23.1941 30.2502 23.5512 29.7117 23.5512C29.4418 23.5512 29.2252 23.4645 29.0864 23.3001C28.9488 23.137 28.8971 22.9046 28.9404 22.6459C29.0247 22.1184 29.4535 21.7497 29.9838 21.7497C30.2483 21.7497 30.4631 21.8375 30.6048 22.0033C30.7472 22.1708 30.8035 22.4045 30.7623 22.6621Z" fill="white"/>
  <path d="M19.5706 17.267L19.8096 15.7486L19.2771 15.7362H16.7344L18.5015 4.53144C18.5069 4.49761 18.5248 4.46607 18.5508 4.44367C18.5769 4.42128 18.6103 4.40894 18.645 4.40894H22.9325C24.356 4.40894 25.3382 4.70513 25.8511 5.28975C26.0915 5.56402 26.2447 5.85061 26.3187 6.16601C26.3964 6.49695 26.3978 6.89234 26.3219 7.37457L26.3164 7.40977V7.71876L26.5569 7.85498C26.7594 7.96239 26.9202 8.08535 27.0436 8.22614C27.2494 8.46063 27.3824 8.75866 27.4386 9.11199C27.4966 9.47538 27.4774 9.90779 27.3824 10.3973C27.2727 10.9605 27.0953 11.451 26.8558 11.8523C26.6355 12.2221 26.3548 12.5287 26.0216 12.7665C25.7035 12.9923 25.3254 13.1637 24.8981 13.2735C24.4839 13.3812 24.0118 13.4357 23.4939 13.4357H23.1602C22.9216 13.4357 22.6898 13.5216 22.5079 13.6757C22.3256 13.8329 22.2048 14.0477 22.1678 14.2827L22.1427 14.4194L21.7203 17.0956L21.7011 17.1939C21.6961 17.225 21.6874 17.2406 21.6747 17.2511C21.6632 17.2606 21.6468 17.267 21.6307 17.267H19.5706Z" fill="white"/>
  <path d="M26.7846 7.44604C26.7718 7.52786 26.7572 7.61151 26.7408 7.69744C26.1753 10.6005 24.2409 11.6033 21.7703 11.6033H20.5124C20.2103 11.6033 19.9556 11.8227 19.9085 12.1208L19.2645 16.2054L19.0821 17.3632C19.0514 17.5588 19.2024 17.7353 19.3997 17.7353H21.6309C21.8951 17.7353 22.1195 17.5433 22.161 17.2828L22.183 17.1694L22.6032 14.5036L22.6301 14.3574C22.6712 14.0959 22.896 13.904 23.1603 13.904H23.4939C25.6555 13.904 27.3478 13.0263 27.8424 10.4866C28.049 9.42572 27.942 8.53988 27.3953 7.91685C27.2299 7.72898 27.0246 7.57311 26.7846 7.44604Z" fill="#EDEDED"/>
  <path d="M26.1928 7.21015C26.1065 7.18501 26.0173 7.16215 25.9258 7.14158C25.834 7.12148 25.7398 7.10365 25.643 7.08811C25.3037 7.03325 24.9322 7.0072 24.534 7.0072H21.1735C21.0907 7.0072 21.0122 7.02594 20.9418 7.05977C20.7868 7.13427 20.6716 7.28101 20.6437 7.46064L19.9287 11.9886L19.9082 12.1207C19.9553 11.8227 20.2099 11.6033 20.512 11.6033H21.7699C24.2406 11.6033 26.1751 10.6 26.7405 7.69741C26.7573 7.61148 26.7715 7.52783 26.7843 7.44602C26.6412 7.37014 26.4862 7.30523 26.3194 7.24991C26.2783 7.2362 26.2359 7.22295 26.1928 7.21015Z" fill="white"/>
  <path d="M20.6445 7.46059C20.6724 7.28094 20.7876 7.13422 20.9425 7.06016C21.0134 7.02634 21.0916 7.0076 21.1742 7.0076H24.5349C24.933 7.0076 25.3046 7.03365 25.6437 7.08851C25.7407 7.10405 25.8349 7.12187 25.9267 7.14198C26.0182 7.16256 26.1072 7.18541 26.1937 7.21055C26.2366 7.22335 26.2791 7.2366 26.3207 7.24986C26.4875 7.30516 26.6425 7.37053 26.7855 7.44595C26.9538 6.37315 26.7842 5.64271 26.2042 4.98129C25.5647 4.25314 24.4105 3.94141 22.9337 3.94141H18.646C18.3443 3.94141 18.0871 4.1608 18.0404 4.45929L16.2546 15.7793C16.2193 16.0032 16.3921 16.2053 16.6179 16.2053H19.265L19.9296 11.9886L20.6445 7.46059Z" fill="white"/>
</svg>