<svg class="icon icon-payment-visa" width="45" height="25" viewBox="0 0 45 30" fill="none" xmlns="http://www.w3.org/2000/svg">
  <rect x="1.25" y="0.5" width="42.75" height="29" rx="3.5" fill="black" stroke="#D9D9D9"/>
  <path fill-rule="evenodd" clip-rule="evenodd" d="M14.0316 20.3228H11.3812L9.39369 12.7405C9.29936 12.3917 9.09906 12.0833 8.80443 11.938C8.06914 11.5728 7.2589 11.2821 6.375 11.1355V10.8436H10.6446C11.2339 10.8436 11.6758 11.2821 11.7495 11.7914L12.7807 17.2608L15.4298 10.8436H18.0065L14.0316 20.3228ZM19.4787 20.3227H16.9756L19.0367 10.8435H21.5398L19.4787 20.3227ZM24.777 13.4696C24.8507 12.9591 25.2926 12.6672 25.8082 12.6672C26.6185 12.5939 27.5011 12.7405 28.2376 13.1044L28.6796 11.0635C27.943 10.7716 27.1328 10.625 26.3975 10.625C23.9681 10.625 22.2003 11.938 22.2003 13.7603C22.2003 15.1466 23.4525 15.8745 24.3363 16.313C25.2926 16.7503 25.6609 17.0422 25.5872 17.4794C25.5872 18.1353 24.8507 18.4272 24.1154 18.4272C23.2315 18.4272 22.3476 18.2086 21.5386 17.8434L21.0967 19.8856C21.9806 20.2495 22.9368 20.3961 23.8207 20.3961C26.5448 20.4681 28.2376 19.1564 28.2376 17.1875C28.2376 14.7081 24.777 14.5628 24.777 13.4696ZM37.0008 20.3227L35.0133 10.8435H32.8785C32.4366 10.8435 31.9946 11.1354 31.8473 11.5727L28.167 20.3227H30.7437L31.2581 18.9377H34.4241L34.7187 20.3227H37.0008ZM33.2477 13.3966L33.983 16.9692H31.9219L33.2477 13.3966Z" fill="white"/>
</svg>